<?xml version="1.0" encoding="utf-8"?>
<svg viewBox="13.585 80.92 299.913 109.977" width="299.913" height="109.977" xmlns="http://www.w3.org/2000/svg">
  <defs>
    <radialGradient id="gradient-1" gradientUnits="userSpaceOnUse" cx="319.254" cy="151.695" r="15.754" gradientTransform="matrix(-0.999999, 0, 0, -0.999999, 0, 0)">
      <stop offset="0" style="stop-color: rgba(161, 25, 25, 1)"/>
      <stop offset="1" style="stop-color: rgba(73, 11, 11, 1)"/>
    </radialGradient>
    <radialGradient id="gradient-5" gradientUnits="userSpaceOnUse" cx="287.328" cy="115.175" r="10.192" gradientTransform="matrix(-0.999999, 0, 0, -1, 0, 0)">
      <stop offset="0" style="stop-color: rgba(161, 25, 25, 1)"/>
      <stop offset="1" style="stop-color: rgba(73, 11, 11, 1)"/>
    </radialGradient>
    <radialGradient id="gradient-8" gradientUnits="userSpaceOnUse" cx="318.936" cy="198.747" r="8.845" gradientTransform="matrix(-0.999998, -0.000001, 0, -1.000001, 0, 0)">
      <stop offset="0" style="stop-color: rgba(161, 25, 25, 1)"/>
      <stop offset="1" style="stop-color: rgba(73, 11, 11, 1)"/>
    </radialGradient>
    <radialGradient id="gradient-6" gradientUnits="userSpaceOnUse" cx="355.245" cy="124.399" r="10.989" gradientTransform="matrix(-1, 0, -0.000001, -0.999999, 0, 0)">
      <stop offset="0" style="stop-color: rgba(161, 25, 25, 1)"/>
      <stop offset="1" style="stop-color: rgba(73, 11, 11, 1)"/>
    </radialGradient>
    <radialGradient id="gradient-9" gradientUnits="userSpaceOnUse" cx="282.478" cy="169.842" r="8.886" gradientTransform="matrix(-1, 0, 0, -0.999999, 0, 0)">
      <stop offset="0" style="stop-color: rgba(161, 25, 25, 1)"/>
      <stop offset="1" style="stop-color: rgba(73, 11, 11, 1)"/>
    </radialGradient>
    <radialGradient id="gradient-7" gradientUnits="userSpaceOnUse" cx="351.943" cy="169.348" r="7.016" gradientTransform="matrix(-1.000004, 0.000001, 0, -1.000001, 0, 0)">
      <stop offset="0" style="stop-color: rgba(161, 25, 25, 1)"/>
      <stop offset="1" style="stop-color: rgba(73, 11, 11, 1)"/>
    </radialGradient>
    <linearGradient id="gradient-2" gradientUnits="userSpaceOnUse" x1="222.914" y1="151.828" x2="222.914" y2="229.984" gradientTransform="matrix(1, 0, 0, 1, -6.224246, -53.955345)">
      <stop offset="0" style="stop-color: rgba(161, 25, 25, 1)"/>
      <stop offset="1" style="stop-color: rgba(73, 11, 11, 1)"/>
    </linearGradient>
  </defs>
  <g>
    <g>
      <ellipse style="fill: url(#gradient-1);" transform="matrix(0.933103, -0.359609, 0.359609, 0.933103, 415.340088, 158.079727)" cx="-319.254" cy="-151.695" rx="15.754" ry="15.754"/>
    </g>
  </g>
  <ellipse style="fill: url(#gradient-5);" transform="matrix(0.494626, -0.869106, 0.869106, 0.494625, 273.186005, -97.931297)" cx="-287.328" cy="-115.175" rx="10.192" ry="10.192"/>
  <ellipse style="fill: url(#gradient-8);" transform="matrix(0.721414, -0.692504, 0.692503, 0.721415, 430.292114, 100.906059)" cx="-318.935" cy="-198.747" rx="8.845" ry="8.845"/>
  <ellipse style="fill: url(#gradient-6);" transform="matrix(0.806586, -0.591117, 0.591117, 0.806586, 458.95343, -5.610346)" cx="-355.245" cy="-124.399" rx="10.989" ry="10.989"/>
  <ellipse style="fill: url(#gradient-9);" transform="matrix(0.758392, -0.651799, 0.6518, 0.758391, 351.04837, 94.173935)" cx="-282.478" cy="-169.842" rx="8.886" ry="8.886"/>
  <ellipse style="fill: url(#gradient-7);" transform="matrix(0.835839, -0.548975, 0.548975, 0.835839, 482.71817, 97.330742)" cx="-351.945" cy="-169.348" rx="7.016" ry="7.016"/>
  <line style="stroke: rgb(0, 0, 0); fill: rgb(161, 25, 25);" x1="36.17" y1="103.528" x2="51.562" y2="120.402"/>
  <line style="stroke: rgb(0, 0, 0); fill: rgb(161, 25, 25);" x1="91.022" y1="110.679" x2="75.864" y2="122.436"/>
  <line style="stroke: rgb(0, 0, 0);" x1="76.008" y1="140.08" x2="89.596" y2="145.922"/>
  <line style="stroke: rgb(0, 0, 0);" x1="61.931" y1="146.939" x2="62.538" y2="169.885"/>
  <line style="stroke: rgb(0, 0, 0);" x1="33.989" y1="145.682" x2="49.08" y2="138.411"/>
  <path d="M 169.937 126.622 C 169.937 129.642 169.124 132.375 167.497 134.822 C 165.864 137.275 163.487 139.075 160.367 140.222 L 171.377 160.962 L 153.527 160.962 L 144.737 142.892 L 138.837 142.892 L 138.837 160.962 L 122.927 160.962 L 122.927 111.422 L 153.237 111.422 C 156.79 111.422 159.827 112.109 162.347 113.482 C 164.867 114.849 166.764 116.695 168.037 119.022 C 169.304 121.349 169.937 123.882 169.937 126.622 Z M 153.737 127.262 C 153.737 125.969 153.307 124.889 152.447 124.022 C 151.58 123.162 150.524 122.732 149.277 122.732 L 138.837 122.732 L 138.837 131.872 L 149.277 131.872 C 150.524 131.872 151.58 131.429 152.447 130.542 C 153.307 129.655 153.737 128.562 153.737 127.262 Z M 195.791 122.082 C 202.751 122.082 208.064 123.715 211.731 126.982 C 215.404 130.242 217.241 135.232 217.241 141.952 L 217.241 144.402 L 188.731 144.402 C 188.731 147.135 189.344 149.199 190.571 150.592 C 191.791 151.985 193.721 152.682 196.361 152.682 C 198.761 152.682 200.524 152.179 201.651 151.172 C 202.784 150.165 203.351 148.822 203.351 147.142 L 217.241 147.142 C 217.241 151.749 215.491 155.349 211.991 157.942 C 208.484 160.529 203.371 161.822 196.651 161.822 C 189.597 161.822 184.124 160.179 180.231 156.892 C 176.344 153.605 174.401 148.625 174.401 141.952 C 174.401 135.425 176.297 130.482 180.091 127.122 C 183.884 123.762 189.117 122.082 195.791 122.082 Z M 196.361 131.222 C 191.847 131.222 189.327 133.359 188.801 137.632 L 202.771 137.632 C 202.771 135.665 202.207 134.105 201.081 132.952 C 199.954 131.799 198.381 131.222 196.361 131.222 Z M 257.703 127.412 L 241.573 151.242 L 258.353 151.242 L 258.353 160.962 L 221.273 160.962 L 221.273 156.282 L 237.253 132.662 L 222.133 132.662 L 222.133 122.942 L 257.703 122.942 L 257.703 127.412 Z M 279.013 118.482 L 264.683 118.482 L 264.683 108.762 L 279.013 108.762 L 279.013 118.482 Z M 279.013 160.962 L 264.683 160.962 L 264.683 122.942 L 279.013 122.942 L 279.013 160.962 Z M 305.438 122.942 L 313.498 122.942 L 313.498 132.662 L 305.438 132.662 L 305.438 147.142 C 305.438 148.869 305.725 150.129 306.298 150.922 C 306.878 151.709 307.935 152.102 309.468 152.102 L 313.498 152.102 L 313.498 160.532 C 312.351 160.912 310.865 161.222 309.038 161.462 C 307.211 161.702 305.628 161.822 304.288 161.822 C 300.061 161.822 296.808 161.055 294.528 159.522 C 292.248 157.989 291.108 155.372 291.108 151.672 L 291.108 132.662 L 285.778 132.662 L 285.778 122.942 L 291.688 122.942 L 294.778 111.422 L 305.438 111.422 L 305.438 122.942 Z" style="fill: url(#gradient-2); white-space: pre;"/>
</svg>